<?xml version="1.0" encoding="UTF-8"?>
<svg width="347px" height="86px" viewBox="0 0 347 86" version="1.1" xmlns="http://www.w3.org/2000/svg" xmlns:xlink="http://www.w3.org/1999/xlink">
    <!-- Generator: Sketch 53.2 (72643) - https://sketchapp.com -->
    <title>bluetooth-logo-color-black</title>
    <desc>Created with Sketch.</desc>
    <g id="bluetooth-logo-color-black" stroke="none" stroke-width="1" fill="none" fill-rule="evenodd">
        <path d="M77.099,72.828 L93.05,72.828 C104.525,72.828 108.838,65.504 108.838,55.819 C108.838,48.251 105.827,44.181 100.7,41.903 C105.583,39.949 107.699,34.66 107.699,29.614 C107.699,19.604 102.897,14.07 92.074,14.07 L77.099,14.07 L77.099,72.828 Z M87.19,22.371 L91.016,22.371 C95.491,22.371 97.607,25.219 97.607,30.672 C97.607,35.555 94.678,38.159 90.853,38.159 L87.19,38.159 L87.19,22.371 Z M87.19,46.46 L90.446,46.46 C96.468,46.46 98.747,49.471 98.747,55.494 C98.747,61.434 96.794,64.527 91.423,64.527 L87.19,64.527 L87.19,46.46 L87.19,46.46 Z" id="Fill-1" fill="#000000"></path>
        <polygon id="Fill-2" fill="#000000" points="112.831 72.828 121.945 72.828 121.945 14.069 112.831 14.069"></polygon>
        <path d="M146.352,29.044 L146.352,63.388 C144.236,64.934 142.446,66.155 140.493,66.155 C138.54,66.155 137.237,65.178 137.237,62.981 L137.237,29.044 L128.123,29.044 L128.123,64.446 C128.123,70.143 130.971,73.642 135.772,73.642 C141.062,73.642 143.015,71.688 146.841,68.433 L146.841,72.828 L155.467,72.828 L155.467,29.044 L146.352,29.044" id="Fill-3" fill="#000000"></path>
        <path d="M189.388,44.507 C189.388,34.903 185.644,28.23 175.227,28.23 C164.81,28.23 161.067,34.903 161.067,44.507 L161.067,57.365 C161.067,66.969 164.81,73.642 175.227,73.642 C185.4,73.642 189.225,67.294 189.388,58.016 L180.273,58.016 L180.273,58.993 C180.273,64.039 178.482,66.155 175.227,66.155 C171.972,66.155 170.181,64.039 170.181,58.993 L170.181,52.645 L189.388,52.645 L189.388,44.507 Z M170.181,45.158 L170.181,42.879 C170.181,37.833 171.972,35.717 175.227,35.717 C178.482,35.717 180.273,37.833 180.273,42.879 L180.273,45.158 L170.181,45.158 L170.181,45.158 Z" id="Fill-4" fill="#000000"></path>
        <path d="M340.397,17.768 L339.603,17.768 L339.603,19.935 L340.092,19.935 C341.221,19.935 341.587,19.294 341.587,18.714 C341.587,18.042 341.283,17.768 340.397,17.768 Z M341.649,23.843 L339.695,20.729 L339.603,20.729 L339.603,23.843 L338.382,23.843 L338.382,16.791 L340.519,16.791 C342.198,16.791 342.87,17.493 342.87,18.562 C342.87,19.752 342.137,20.485 341.008,20.607 C341.16,20.79 341.435,21.187 341.71,21.614 L343.175,23.843 L341.649,23.843 Z M335.482,20.301 C335.482,23.049 337.71,25.43 340.458,25.43 C343.236,25.43 345.434,23.171 345.434,20.424 C345.434,17.646 343.236,15.295 340.458,15.295 C337.71,15.295 335.482,17.554 335.482,20.301 Z M346.899,20.363 C346.899,23.843 343.938,26.773 340.458,26.773 C336.825,26.773 334.048,23.965 334.048,20.363 C334.048,16.822 336.917,13.952 340.458,13.952 C344.091,13.952 346.899,16.73 346.899,20.363 L346.899,20.363 Z" id="Fill-5" fill="#000000"></path>
        <path d="M197.428,36.531 L197.428,63.794 C197.428,70.468 201.252,73.642 208.088,73.642 C210.367,73.642 211.425,73.479 212.645,73.153 L212.645,65.341 L209.635,65.341 C207.519,65.341 206.542,64.039 206.542,61.76 L206.542,36.531 L212.645,36.531 L212.645,29.044 L206.542,29.044 L206.542,17.244 L197.428,17.244 L197.428,29.044 L192.382,29.044 L192.382,36.531 L197.428,36.531" id="Fill-6" fill="#000000"></path>
        <path d="M216.45,57.365 C216.45,66.969 220.194,73.642 230.611,73.642 C241.028,73.642 244.771,66.969 244.771,57.365 L244.771,44.507 C244.771,34.903 241.028,28.23 230.611,28.23 C220.194,28.23 216.45,34.903 216.45,44.507 L216.45,57.365 Z M235.657,58.993 C235.657,64.039 233.867,66.155 230.611,66.155 C227.356,66.155 225.565,64.039 225.565,58.993 L225.565,42.879 C225.565,37.833 227.356,35.717 230.611,35.717 C233.867,35.717 235.657,37.833 235.657,42.879 L235.657,58.993 L235.657,58.993 Z" id="Fill-7" fill="#000000"></path>
        <path d="M249.558,57.365 C249.558,66.969 253.301,73.642 263.718,73.642 C274.135,73.642 277.879,66.969 277.879,57.365 L277.879,44.507 C277.879,34.903 274.135,28.23 263.718,28.23 C253.301,28.23 249.558,34.903 249.558,44.507 L249.558,57.365 Z M268.764,58.993 C268.764,64.039 266.973,66.155 263.718,66.155 C260.463,66.155 258.672,64.039 258.672,58.993 L258.672,42.879 C258.672,37.833 260.463,35.717 263.718,35.717 C266.973,35.717 268.764,37.833 268.764,42.879 L268.764,58.993 L268.764,58.993 Z" id="Fill-8" fill="#000000"></path>
        <path d="M285.674,36.531 L285.674,63.794 C285.674,70.468 289.5,73.642 296.336,73.642 C298.614,73.642 299.672,73.479 300.893,73.153 L300.893,65.341 L297.882,65.341 C295.766,65.341 294.79,64.039 294.79,61.76 L294.79,36.531 L300.893,36.531 L300.893,29.044 L294.79,29.044 L294.79,17.244 L285.674,17.244 L285.674,29.044 L280.629,29.044 L280.629,36.531 L285.674,36.531" id="Fill-9" fill="#000000"></path>
        <path d="M315.685,72.828 L315.685,38.484 C317.8,36.938 319.591,35.717 321.544,35.717 C323.497,35.717 324.8,36.694 324.8,38.891 L324.8,72.828 L333.914,72.828 L333.914,37.426 C333.914,31.73 331.066,28.23 326.265,28.23 C320.974,28.23 319.021,30.183 315.685,33.113 L315.685,14.07 L306.57,14.07 L306.57,72.828 L315.685,72.828" id="Fill-10" fill="#000000"></path>
        <path d="M55.741,43.048 C55.741,65.262 44.855,83.271 31.427,83.271 C17.998,83.271 7.112,65.262 7.112,43.048 C7.112,20.833 17.998,2.825 31.427,2.825 C44.855,2.825 55.741,20.833 55.741,43.048" id="Fill-11" fill="#FFFFFE"></path>
        <path d="M31.407,86 C49.996,86 62.808,77.169 62.808,43.43 C62.808,9.691 49.996,0.859 31.407,0.859 C12.818,0.859 0,9.691 0,43.43 C0,77.169 12.818,86 31.407,86 Z M27.331,43.43 L12.112,28.172 L16.522,23.762 L28.649,35.889 L28.649,6.825 L50.695,28.871 L36.136,43.43 L50.695,57.989 L28.649,80.035 L28.649,50.971 L16.522,63.098 L12.112,58.688 L27.331,43.43 Z M34.845,64.977 L41.885,57.938 L34.851,50.903 L34.845,64.977 Z M34.845,21.883 L41.885,28.922 L34.851,35.957 L34.845,21.883 L34.845,21.883 Z" id="Fill-12" fill="#0082FC"></path>
    </g>
</svg>